<?xml version="1.0" encoding="utf-8"?>
<!-- Generator: Adobe Illustrator 25.4.1, SVG Export Plug-In . SVG Version: 6.00 Build 0)  -->
<svg version="1.1" id="Layer_1" xmlns="http://www.w3.org/2000/svg" xmlns:xlink="http://www.w3.org/1999/xlink" x="0px" y="0px"
	 viewBox="0 0 612 792" style="enable-background:new 0 0 612 792;" xml:space="preserve">
<style type="text/css">
	.st0{fill:none;}
	.st1{clip-path:url(#SVGID_00000093177259525162571130000004390006771700877725_);fill:none;stroke:#BE1E2D;stroke-miterlimit:10;}
	
		.st2{clip-path:url(#SVGID_00000159432149998992501560000012523415809739598010_);fill:url(#SVGID_00000149373659853592726430000012351597534734682292_);}
	.st3{clip-path:url(#SVGID_00000159432149998992501560000012523415809739598010_);}
	.st4{filter:url(#Adobe_OpacityMaskFilter);}
	
		.st5{clip-path:url(#SVGID_00000163044347002360538920000017061928864746534788_);fill:url(#SVGID_00000033345983746214969920000005884875259172277648_);}
	
		.st6{clip-path:url(#SVGID_00000163044347002360538920000017061928864746534788_);mask:url(#SVGID_00000162328903442656897220000001305521955502524069_);fill:url(#SVGID_00000042712139909063705650000011452470217737239464_);}
	.st7{clip-path:url(#SVGID_00000071550000613866386570000008971988020921179540_);fill:#BE1E2D;}
	.st8{clip-path:url(#SVGID_00000052812274332665245910000002681717570515961279_);fill:#BE1E2D;}
	.st9{fill:url(#SVGID_00000050641570054791233030000015313495133861245080_);}
	.st10{filter:url(#Adobe_OpacityMaskFilter_00000023966621391472860610000016744958604303020686_);}
	.st11{fill:url(#SVGID_00000163774035668978133810000006779805662176356771_);}
	
		.st12{mask:url(#SVGID_00000135689656037404593240000015408406825219483289_);fill:url(#SVGID_00000000182676809884934120000014613940064927630768_);}
</style>
<pattern  x="-632" y="792" width="27.95" height="17.75" patternUnits="userSpaceOnUse" id="Unnamed_Pattern" viewBox="9.32 -26.62 27.95 17.75" style="overflow:visible;">
	<g>
		<rect x="9.32" y="-26.62" class="st0" width="27.95" height="17.75"/>
		<g>
			<defs>
				<rect id="SVGID_1_" x="9.32" y="-26.62" width="27.95" height="17.75"/>
			</defs>
			<clipPath id="SVGID_00000178911281726458771670000014763619790995344810_">
				<use xlink:href="#SVGID_1_"  style="overflow:visible;"/>
			</clipPath>
			
				<path style="clip-path:url(#SVGID_00000178911281726458771670000014763619790995344810_);fill:none;stroke:#BE1E2D;stroke-miterlimit:10;" d="
				M38.94-18.25h-3.33c-1.96,0-3.77-1.05-4.76-2.75l-1.66-2.88c-0.98-1.7-0.98-3.79,0-5.49l1.66-2.88c0.98-1.7,2.79-2.75,4.76-2.75
				h3.33c1.96,0,3.77,1.05,4.76,2.75l1.66,2.88c0.98,1.7,0.98,3.79,0,5.49l-1.66,2.88C42.71-19.29,40.9-18.25,38.94-18.25z"/>
			
				<path style="clip-path:url(#SVGID_00000178911281726458771670000014763619790995344810_);fill:none;stroke:#BE1E2D;stroke-miterlimit:10;" d="
				M10.98-18.25H7.65c-1.96,0-3.77-1.05-4.76-2.75l-1.66-2.88c-0.98-1.7-0.98-3.79,0-5.49l1.66-2.88c0.98-1.7,2.79-2.75,4.76-2.75
				h3.33c1.96,0,3.77,1.05,4.76,2.75l1.66,2.88c0.98,1.7,0.98,3.79,0,5.49l-1.66,2.88C14.76-19.29,12.94-18.25,10.98-18.25z"/>
			
				<path style="clip-path:url(#SVGID_00000178911281726458771670000014763619790995344810_);fill:none;stroke:#BE1E2D;stroke-miterlimit:10;" d="
				M38.94-0.5h-3.33c-1.96,0-3.77-1.05-4.76-2.75l-1.66-2.88c-0.98-1.7-0.98-3.79,0-5.49l1.66-2.88c0.98-1.7,2.79-2.75,4.76-2.75
				h3.33c1.96,0,3.77,1.05,4.76,2.75l1.66,2.88c0.98,1.7,0.98,3.79,0,5.49l-1.66,2.88C42.71-1.55,40.9-0.5,38.94-0.5z"/>
			
				<path style="clip-path:url(#SVGID_00000178911281726458771670000014763619790995344810_);fill:none;stroke:#BE1E2D;stroke-miterlimit:10;" d="
				M24.96-9.37h-3.33c-1.96,0-3.77-1.05-4.76-2.75L15.21-15c-0.98-1.7-0.98-3.79,0-5.49l1.66-2.88c0.98-1.7,2.79-2.75,4.76-2.75
				h3.33c1.96,0,3.77,1.05,4.76,2.75l1.66,2.88c0.98,1.7,0.98,3.79,0,5.49l-1.66,2.88C28.73-10.42,26.92-9.37,24.96-9.37z"/>
			
				<path style="clip-path:url(#SVGID_00000178911281726458771670000014763619790995344810_);fill:none;stroke:#BE1E2D;stroke-miterlimit:10;" d="
				M10.98-0.5H7.65c-1.96,0-3.77-1.05-4.76-2.75L1.24-6.13c-0.98-1.7-0.98-3.79,0-5.49L2.9-14.5c0.98-1.7,2.79-2.75,4.76-2.75h3.33
				c1.96,0,3.77,1.05,4.76,2.75l1.66,2.88c0.98,1.7,0.98,3.79,0,5.49l-1.66,2.88C14.76-1.55,12.94-0.5,10.98-0.5z"/>
		</g>
	</g>
</pattern>
<pattern  id="SVGID_00000137834010444258662270000014204283321698634684_" xlink:href="#Unnamed_Pattern" patternTransform="matrix(0.9578 0 0 -0.9578 -1430.5577 -743.9115)">
</pattern>
<rect y="0.72" style="fill:url(#SVGID_00000137834010444258662270000014204283321698634684_);" width="612" height="787.65"/>
<defs>
	<filter id="Adobe_OpacityMaskFilter" filterUnits="userSpaceOnUse" x="-0.82" y="0" width="612.82" height="792">
		<feColorMatrix  type="matrix" values="1 0 0 0 0  0 1 0 0 0  0 0 1 0 0  0 0 0 1 0"/>
	</filter>
</defs>
<mask maskUnits="userSpaceOnUse" x="-0.82" y="0" width="612.82" height="792" id="SVGID_00000057112923646068933920000017122807820341173632_">
	<g class="st4">
		
			<radialGradient id="SVGID_00000006687605896804616410000007161471879059963812_" cx="-631.069" cy="792" r="1" gradientTransform="matrix(678.8405 0 0 -681.674 428698.8125 540275.75)" gradientUnits="userSpaceOnUse">
			<stop  offset="0" style="stop-color:#FFFFFF"/>
			<stop  offset="0.5" style="stop-color:#FFFFFF"/>
			<stop  offset="0.5539" style="stop-color:#FAFAFA"/>
			<stop  offset="0.6158" style="stop-color:#ECECEC"/>
			<stop  offset="0.6816" style="stop-color:#D5D5D5"/>
			<stop  offset="0.7502" style="stop-color:#B5B5B5"/>
			<stop  offset="0.821" style="stop-color:#8C8C8C"/>
			<stop  offset="0.8936" style="stop-color:#595959"/>
			<stop  offset="0.9663" style="stop-color:#1E1E1E"/>
			<stop  offset="1" style="stop-color:#000000"/>
		</radialGradient>
		
			<rect x="-3.88" y="-3.98" style="fill:url(#SVGID_00000006687605896804616410000007161471879059963812_);" width="618.95" height="795.98"/>
	</g>
</mask>
<radialGradient id="SVGID_00000138535378271812429060000004520146554937491874_" cx="-631.069" cy="792" r="1" gradientTransform="matrix(678.8404 0 0 -681.674 428698.7812 540275.6875)" gradientUnits="userSpaceOnUse">
	<stop  offset="0" style="stop-color:#FFFFFF"/>
	<stop  offset="0.7298" style="stop-color:#FFFFFF;stop-opacity:0.2101"/>
	<stop  offset="0.8499" style="stop-color:#FFFFFF;stop-opacity:0.0801"/>
	<stop  offset="1" style="stop-color:#FFFFFF;stop-opacity:0"/>
</radialGradient>
<rect x="-0.82" y="0" style="mask:url(#SVGID_00000057112923646068933920000017122807820341173632_);fill:url(#SVGID_00000138535378271812429060000004520146554937491874_);" width="612.82" height="792"/>
<rect y="0" class="st0" width="612" height="787.65"/>
<rect y="0.72" class="st0" width="612" height="792"/>
</svg>
